# xmcd
#
# Track frame offsets: 
#        183
#        20808
#        53733
#
# Disc length: 968 seconds
#
# Revision: 2
# Processed by: cddbd v1.5.2PL0 Copyright (c) Steve Scherf et al.
# Submitted via: ExactAudioCopyFreeDBPlugin 1.0
#
DISCID=2003c603
DTITLE=Janet Jackson - Alright [CDS)
DYEAR=1990
DGENRE=Funk
TTITLE0=Alright (7" R&B Mix)
TTITLE1=Alright (12" R&B Mix)
TTITLE2=Alright (7" Remix)
EXTD=I got the wrong info from your database when i checked my origina
EXTD=l CD.
EXTT0=
EXTT1=
EXTT2=
PLAYORDER=
